/* XPM */
static const char * icon_xpm[] = {
"16 16 4 1",
" 	c None",
".	c #000000",
"+	c #FFFC00",
"@	c #FF0000",
"................",
".....++++++.....",
"...++......++...",
"..+..........+..",
"..+..@....@..+..",
".+.@..@..@..@.+.",
".+.@.@@@@@@.@.+.",
".+.@@@+@@+@@@.+.",
".+.@@@@@@@@@@.+.",
".+..@@@@@@@@..+.",
".+...@....@...+.",
"..+.@......@.+..",
"..+..........+..",
"...++......++...",
".....++++++.....",
"................"};
